<svg width="1024" height="1024" viewBox="0 0 1024 1024" fill="none" xmlns="http://www.w3.org/2000/svg">
<path d="M755.145 330.547L648.694 436.998L588.21 470.868L594.258 485.384L648.694 468.449H812V555.545H648.694L594.258 538.61L588.21 553.126L648.694 586.996L755.145 693.447L693.452 755.14L587 648.689L553.129 588.206L538.613 594.254L555.548 648.689V811.994H468.452V648.689L485.387 594.254L470.871 588.206L437 648.689L330.548 755.14L268.855 693.447L375.306 586.996L435.79 553.126L429.742 538.61L375.306 555.545H212V468.449H375.306L429.742 485.384L435.79 470.868L375.306 436.998L268.855 330.547L330.548 268.854L437 375.305L470.871 435.788L485.387 429.74L468.452 375.305V212H555.548V375.305L538.613 429.74L553.129 435.788L587 375.305L693.452 268.854L755.145 330.547Z" fill="white"/>
</svg>
